<svg xmlns="http://www.w3.org/2000/svg" width="1200" height="600" viewBox="0 0 1200 600">
  <style>
    .mountain { fill: #8B4513; opacity: 0.2; }
    .cloud { fill: #D2B48C; opacity: 0.15; }
    .tree { fill: #556B2F; opacity: 0.2; }
    .water { fill: #4682B4; opacity: 0.1; }
    .pagoda { fill: #A0522D; opacity: 0.25; }
  </style>
  
  <!-- 背景山脉 -->
  <path class="mountain" d="M0,400 Q300,200 600,400 T1200,400 V600 H0 Z" />
  
  <!-- 云朵装饰 -->
  <path class="cloud" d="M100,150 Q150,100 200,150 Q250,100 300,150 Q350,100 400,150 Q300,200 100,150 Z" />
  <path class="cloud" d="M700,100 Q750,50 800,100 Q850,50 900,100 Q950,50 1000,100 Q900,150 700,100 Z" />
  
  <!-- 树木剪影 -->
  <path class="tree" d="M150,500 L170,500 L170,450 L190,450 L160,420 L130,450 L150,450 Z" />
  <path class="tree" d="M250,480 L270,480 L270,430 L290,430 L260,400 L230,430 L250,430 Z" />
  <path class="tree" d="M950,490 L970,490 L970,440 L990,440 L960,410 L930,440 L950,440 Z" />
  <path class="tree" d="M1050,470 L1070,470 L1070,420 L1090,420 L1060,390 L1030,420 L1050,420 Z" />
  
  <!-- 水面波纹 -->
  <path class="water" d="M0,550 Q150,530 300,550 T600,550 T900,550 T1200,550 V600 H0 Z" />
  
  <!-- 宝塔剪影 -->
  <path class="pagoda" d="M600,400 L620,400 L615,380 L625,380 L620,360 L630,360 L625,340 L635,340 L630,320 L640,320 L635,300 L645,300 L640,280 L650,280 L645,260 L655,260 L650,240 L660,240 L655,220 L665,220 L660,200 L670,200 L665,180 L600,180 L595,200 L605,200 L600,220 L610,220 L605,240 L615,240 L610,260 L620,260 L615,280 L625,280 L620,300 L630,300 L625,320 L635,320 L630,340 L640,340 L635,360 L645,360 L640,380 L650,380 L645,400 Z" />
  
  <!-- 中国风装饰元素 -->
  <circle class="pagoda" cx="200" cy="200" r="15" />
  <circle class="pagoda" cx="1000" cy="250" r="15" />
  <circle class="pagoda" cx="400" cy="300" r="10" />
  <circle class="pagoda" cx="800" cy="350" r="10" />
</svg>